<svg width="469pt" height="533pt" version="1.1" viewBox="0 0 469 533" xmlns="http://www.w3.org/2000/svg">
<g fill="#672924">
<path d="m54.53 38.46c1.48-1.95 4.11-2.29 6.35-1.72 5.53 1.41 10.1 5.04 15.33 7.19 14.32 6.4 30.1 8.12 44.86 13.17 12.19 4.51 23.88 10.34 35.04 16.99-5.25 2.67-10.31 5.77-14.99 9.37-2.09-3-4.16-6-6.37-8.92-0.54 0.87-1.07 1.76-1.56 2.65-7.94-4.25-15.57-9.17-24.11-12.19-9.85-3.45-19.87-6.46-29.47-10.58-4.63-1.96-8.78-4.92-13.58-6.51-0.62 4.5 0.44 8.95 1.83 13.2 4.4 13.79 7.18 28.08 12.44 41.59 2.36 6.16 5.98 11.97 11.2 16.1 2.37 1.98 4.72 3.98 6.93 6.14-3.25 1.2-6.57 2.24-9.81 3.47 3.57 3.68 9.43 3.24 14.02 4.94-1.18 4.28-1.97 8.65-2.89 12.99-4.78-2.3-8.59-6.09-12.26-9.82-9.77-10.05-15.76-23.09-19.98-36.29-5.49-16.4-8.22-33.53-11.88-50.39-0.8-3.73-1.68-7.56-1.1-11.38z"/>
<path d="m367.24 42.32c3.89-2.13 8.59-4.17 13.04-2.58 2.55 1.71 1.37 5.33 1.09 7.85-3.44 13.39-5.6 27.08-9.43 40.37-4.52 14.77-8.73 30.14-18.31 42.59-5.11 7.05-11.82 12.68-18.37 18.33 0.11 3.81 0.29 7.61 0.68 11.41-1.31-8.35-1.62-16.9-4.08-25.04 4.77-1.17 9.57-2.25 14.26-3.73-2.35-3.02-6.63-3.08-9.86-4.68 2.22-2.2 4.67-4.15 7.12-6.09 5.29-4.04 8.96-9.8 11.43-15.9 4.62-11.35 7.48-23.3 11.05-34.99 1.87-6.3 4.73-12.53 4.23-19.27-5.42 1.16-9.86 4.69-15.04 6.51-13.23 5.5-27.53 8.14-40.32 14.73-4.4 2.2-8.55 4.82-12.84 7.21-0.07-0.84-0.23-2.53-0.31-3.37-2.94 2.52-5.04 5.8-7.2 8.96-4.69-3.45-9.55-6.75-14.74-9.42 12.44-8.01 26.06-14.14 40.14-18.63 15.88-4.4 33.01-5.71 47.46-14.26z"/>
<path d="m131 156.98c15.82-3.53 33.35 5.23 39.95 20.05 1.68 3.66 2.85 7.65 2.51 11.72-0.48-0.26-1.45-0.77-1.93-1.03-1.97-3.43-3.31-7.29-6.03-10.25-6.52-7.39-16.57-11.11-26.33-10.51-3.51 0.32-8.04-1.53-10.68 1.56-3.37 3.63-8.57 4.49-12.3 7.69-2-2.46-3.56-5.22-4.6-8.22 4.43-6.34 12.16-9.27 19.41-11.01z"/>
<path d="m259.23 186.96c2.24-15.15 15.68-27.32 30.76-29.03 10.82-1.29 22.34 2.3 30.22 9.9 3.87 3.63-1.12 8.06-3.44 11.02-3.82-2.45-7.37-5.42-11.63-7.09-2.59-0.91-4.21-3.24-6.35-4.81-2.56-0.45-5.19-0.05-7.72 0.4-7.72 1.5-15.82 3.41-21.71 9.01-3.8 3.11-5.65 7.73-8.15 11.81-0.68 1.63-2.4-0.1-1.98-1.21z"/>
<path d="m206.34 172.45c6.33-1.35 12.99-1.32 19.32 0.06 3.18 0.63 5.44 3.1 7.72 5.21-0.37 2.1-0.12 4.46-1.22 6.36-2.75 1.35-6.37 1.14-8.43 3.69-1.88 2.15-4.03 4.1-5.68 6.44-0.54 3.55-0.48 7.19-0.12 10.75 0.85 4.71 4.44 8.19 7.33 11.77 4.96 5.94 10.49 12.04 12.2 19.82 1.97 7.58-0.11 15.93-4.67 22.2-3.56 4.94-9.89 7.02-15.79 6.84-7.6 0.2-15.79-3.19-19.47-10.15-4.06-7.52-2.75-16.71 0.57-24.25 3.92-9.41 12.48-16.26 15.02-26.34 0.5-3.55 0.48-7.2 0.07-10.76-0.9-2.3-2.84-3.99-4.36-5.88-2.23-2.94-6.19-3.17-9.39-4.46-0.25-2.04-0.47-4.08-0.72-6.11 2.28-2.06 4.45-4.59 7.62-5.19m-1.41 53.25c0.53 0.44 1.58 1.32 2.11 1.76 1.88-3.51 3.83-7.01 5.08-10.81 2.57 1.62 5.98-0.08 8.42 1.87 3.09 2.18 4.06 6.02 5.32 9.37 0.71-0.97 1.41-1.95 2.08-2.95-3.8-5.53-8.04-10.72-12.08-16.06-3.66 5.59-7.4 11.15-10.93 16.82m11.25 22.61c-1.46-0.97-2.82-2.11-4.42-2.83-1.5-0.5-2.44 1.01-3.33 1.92-2.88 3.35-3.93 7.75-4.51 12.02l0.66 0.05c1.82 1.39 3.89 2.47 6.17 2.84 5.93 1.08 12.67 1.1 17.61-2.86l0.65-0.05c-0.43-5.75-1.98-12.72-7.89-15.19-1.67 1.33-3.23 2.8-4.94 4.1z"/>
<path d="m126.11 219.09c5.2-5.95 15.67-4.46 19.91 1.84 1.77 3.27 2.47 7.56 0.84 11.01-0.88 1.87-3.09 1.14-4.73 1.26-3.47-0.56-6.46 1.59-9.65 2.53-2.24 13.58-4.25 27.28-4.44 41.07-1.29 7.05 3.49 13.08 7.77 18.1-10.86 3.04-19.99 11.08-25.43 20.83-4.12-3.59-7.69-7.74-11.18-11.92-2.66-3.37-5.51-7.26-4.93-11.82 0.68-7.86 3.56-15.29 5.77-22.8 1.11-4.17 2.38-8.29 4.04-12.27 5.45-13.56 12.19-26.9 22.03-37.83z"/>
<path d="m288.5 220.42c3.31-4.39 9.57-6.03 14.76-4.54 4.48 1.8 7.37 5.95 10.09 9.73 9.93 13.62 16.67 29.33 21.57 45.39 1.92 5.64 2.87 11.54 4.63 17.22 0.66 4.18 0.52 8.74-1.97 12.35-3.65 5.58-7.98 10.81-13.29 14.89-3.64-4.57-7.08-9.41-11.71-13.07-4.08-3.43-8.9-5.77-13.8-7.78 2.67-3.4 5.17-6.94 7.29-10.71 0.73-5.21 0.18-10.48-0.2-15.69-1.11-10.86-2.1-21.78-4.3-32.48-2.15-0.79-4.24-1.71-6.4-2.47-2.39-0.41-4.83 0.1-7.23 0.12-2.29-3.98-1.91-9.16 0.56-12.96z"/>
<path d="m105.95 429.99c1.68-1.42 4.36-1.87 6.3-0.8 1.3 1.04 2.55 2.13 3.82 3.21 2.18-2.14 5.21-5.37 8.44-3.07 4.1 3.93 5.92 9.53 8.95 14.23 3.19 5.63 8.57 9.65 11.56 15.42 2.49 4.41 3.81 9.35 4.46 14.35-2.82 0.29-7.11-0.66-8.18 2.9-2.04 6.53 0.81 13.21 1.14 19.78 0.26 5.28-5.4 9.6-10.45 8.35-5.22-1.23-8.92-5.81-10.88-10.57-2.12-5.33-4.11-10.76-7.16-15.66-5.66-9.12-10.87-18.51-16.15-27.86-2.07-3.92-4.5-8.28-3.43-12.88 1.97-3.59 6.25-1.53 9.15-0.52 0.66-2.32 0.75-5 2.43-6.88z"/>
<path d="m308.33 429.05c3.16-1.72 5.74 1.16 7.78 3.19 2.76-2.2 5.99-3.73 9.58-3.82 1.71 2.5 2.63 5.38 3.12 8.35 2.68-0.82 6.21-2.68 8.51-0.09 2.33 3.5-0.12 7.68-1.5 11.07-6.1 12.28-13.57 23.81-20.19 35.8-3 5.93-4.17 13.1-9.43 17.66-3.47 3.38-9.67 4.68-13.35 0.9-3.79-2.85-2.61-8.07-2.46-12.14 0.2-5.01 2.51-10.55-0.16-15.22-5.45-2.93-12.23-0.43-18.05-2.46 3.38-0.13 7.19 0.99 10.3-0.49 1.73-4.13 2.58-8.6 4.73-12.56 3.05-6.3 9.08-10.44 12.29-16.65 2.8-4.56 4.51-10.12 8.83-13.54z"/>
</g>
<g fill="#f88f3c">
<path d="m66.03 47.91c4.8 1.59 8.95 4.55 13.58 6.51 9.6 4.12 19.62 7.13 29.47 10.58 8.54 3.02 16.17 7.94 24.11 12.19 0.14 2.8 0.37 5.6 0.38 8.41-3.94-1.44-7.77-3.14-11.71-4.59 0.99 3.77 2.21 7.48 3.35 11.21-4.48-0.59-8.93-1.42-13.44-1.84 1.77 3.21 4.06 6.08 6.4 8.89-4.89-0.13-9.78-0.74-14.68-0.38 2.23 3.51 4.99 6.64 7.52 9.93-5.1-0.4-10.15-1.7-15.29-1.13 2.92 3.13 6.25 5.84 9.39 8.74-4.59 0.39-9.38 0.3-13.61 2.37-5.22-4.13-8.84-9.94-11.2-16.1-5.26-13.51-8.04-27.8-12.44-41.59-1.39-4.25-2.45-8.7-1.83-13.2z"/>
<path d="m355.05 57.1c5.18-1.82 9.62-5.35 15.04-6.51 0.5 6.74-2.36 12.97-4.23 19.27-3.57 11.69-6.43 23.64-11.05 34.99-2.47 6.1-6.14 11.86-11.43 15.9-4.24-1.96-8.96-2.08-13.51-2.69 3.23-2.79 6.7-5.37 9.34-8.76-4.93-0.02-9.82 0.75-14.74 0.99 2.35-3.23 4.91-6.29 7.24-9.54-4.93-0.58-9.88-0.03-14.82 0.2 2.38-2.74 4.71-5.56 6.45-8.77-4.51 0.26-8.96 1.04-13.44 1.6 1.29-3.71 2.66-7.38 3.88-11.11-4.16 1.13-8.11 2.88-12.09 4.51 0.06-2.72 0.21-5.42 0.2-8.14 4.29-2.39 8.44-5.01 12.84-7.21 12.79-6.59 27.09-9.23 40.32-14.73z"/>
<path d="m185.51 63.22c15.85-3.46 32.19-2.82 48.26-1.75 13.02 0.96 25.86 4.34 37.64 9.99 2.67 1.41 5.46 2.57 8.23 3.75 5.19 2.67 10.05 5.97 14.74 9.42 15.71 14.06 30.23 30.5 37.48 50.62 2.46 8.14 2.77 16.69 4.08 25.04 1.1 9.18 1.54 18.43 1.79 27.68 0.21 5.42 1.45 10.89 0.65 16.3-12.1-5.7-25.74-9.4-39.15-6.91-7.91 1.45-15.78 3.88-22.52 8.37-3.29 2.01-6.31 4.62-10.02 5.84-3.33 0.8-6.39-1.42-8.86-3.37-6.72-5.79-11.66-13.3-16.06-20.92-2.11-3.74-5.23-6.72-8.39-9.56-2.28-2.11-4.54-4.58-7.72-5.21-6.33-1.38-12.99-1.41-19.32-0.06-3.17 0.6-5.34 3.13-7.62 5.19-3.9 3.2-7.43 6.91-9.68 11.48-3.8 6.87-8.33 13.46-14.15 18.79-2.59 2.22-5.94 4.64-9.54 3.67-4.07-1.55-7.18-4.75-10.65-7.26-8.13-6.51-18.3-10.42-28.67-11.11-5.85-0.43-11.59 0.99-17.22 2.37 1.19-2.95 2.45-5.88 3.74-8.78-6.22 4.96-10.5 12.09-17.5 16.1 0.02-0.71 0.06-2.12 0.08-2.83 1.69-17.9 3-35.83 4.62-53.73 0.92-4.34 1.71-8.71 2.89-12.99 7.89-19.85 22.34-36.25 38.48-49.89 4.68-3.6 9.74-6.7 14.99-9.37 9.47-4.43 19.1-8.78 29.4-10.87m-54.51 93.76c-7.25 1.74-14.98 4.67-19.41 11.01 1.04 3 2.6 5.76 4.6 8.22-1.14 0.69-2.3 1.33-3.45 2-0.17 2.46 1.03 4.91 3.57 5.59 2.45 0.87 3.8-1.8 5.28-3.2 1.8-2.26 5.57-1.21 7.24-3.75 2.9-3.85 6.97-6.51 10.34-9.89 9.76-0.6 19.81 3.12 26.33 10.51 2.72 2.96 4.06 6.82 6.03 10.25 0.48 0.26 1.45 0.77 1.93 1.03 0.34-4.07-0.83-8.06-2.51-11.72-6.6-14.82-24.13-23.58-39.95-20.05m128.23 29.98c-0.42 1.11 1.3 2.84 1.98 1.21 2.5-4.08 4.35-8.7 8.15-11.81 5.89-5.6 13.99-7.51 21.71-9.01l0.08 0.76c2.67 2.81 6.39 4.76 8.64 8.12 1.43 2.39 4.35 2.52 6.71 3.37 1.7 1.24 2.67 3.47 4.67 4.24 3.04 0.48 4.99-2.38 5.6-4.99 2.32-2.96 7.31-7.39 3.44-11.02-7.88-7.6-19.4-11.19-30.22-9.9-15.08 1.71-28.52 13.88-30.76 29.03z"/>
<path d="m216.18 248.31c1.71-1.3 3.27-2.77 4.94-4.1 5.91 2.47 7.46 9.44 7.89 15.19l-0.65 0.05c-7.91 1-15.87 1.1-23.78 0.02l-0.66-0.05c0.58-4.27 1.63-8.67 4.51-12.02 0.89-0.91 1.83-2.42 3.33-1.92 1.6 0.72 2.96 1.86 4.42 2.83z"/>
<path d="m387.29 258c1.58-0.72 3.21-1.35 4.84-1.97 0.38 3.99 0.59 7.99 0.86 11.98 3.21-2.32 6.34-4.77 9.81-6.69 1.29 4.25 2.39 8.58 4.03 12.72 3.06-2.38 6.09-4.78 9.21-7.08 1.97 3.58 3.81 7.23 5.86 10.76 2.58-2.84 5.02-5.8 7.41-8.8 2.45 2.32 4.85 4.7 7.05 7.27 2.13 10.43 0.66 21.37-1.03 31.83-3.6 19.11-11.34 37.27-21.41 53.85-10.09 15.77-21.69 30.9-36.4 42.65-14.91 12.14-32.84 20.68-51.83 23.9-3.59 0.09-6.82 1.62-9.58 3.82-2.04-2.03-4.62-4.91-7.78-3.19-4.32 3.42-6.03 8.98-8.83 13.54-3.21 6.21-9.24 10.35-12.29 16.65-2.15 3.96-3 8.43-4.73 12.56-3.11 1.48-6.92 0.36-10.3 0.49-5.35-1-10.47-3.28-14.37-7.15-14.88 6.87-31.63 8.02-47.79 7.33-11.9-1.01-24.29-2.37-34.89-8.31-6.57 6.95-16.53 8.64-25.65 9.17-0.65-5-1.97-9.94-4.46-14.35-2.99-5.77-8.37-9.79-11.56-15.42-3.03-4.7-4.85-10.3-8.95-14.23-3.23-2.3-6.26 0.93-8.44 3.07-1.27-1.08-2.52-2.17-3.82-3.21 1.21-8.97 4.1-18.72 11.95-24.1 4.11-2.96 9.32-2.56 14.05-3.57 2.46-14.96 8.22-29.3 16.16-42.18 1.72-2.94 4.1-5.61 4.66-9.07-5.28-2.02-10.63-3.94-15.52-6.81-12.8-6.92-23.25-17.27-33.17-27.73 5.44-9.75 14.57-17.79 25.43-20.83 8.09 6.78 18.13 10.66 28.03 14.02 6.2 1.73 12.33 3.83 18.71 4.86 3.88-6.82 8.82-13.25 11-20.87 11.75 2.51 23.94 3.52 35.87 1.78 4.33-0.67 8.86 0.05 13.05-1.45 0.06 2.9 0.08 5.98 1.8 8.47 2.42 3.78 4.16 7.98 6.86 11.57 4.9 0.19 9.55-1.99 14.28-3.04 11.67-3.79 23.8-7.65 33.37-15.63 4.9 2.01 9.72 4.35 13.8 7.78 4.63 3.66 8.07 8.5 11.71 13.07 5.31-4.08 9.64-9.31 13.29-14.89 2.49-3.61 2.63-8.17 1.97-12.35 8.22-2.95 16.47-6.04 23.8-10.87 5.03-3.16 9.48-7.13 13.96-11.01 3.28-2.83 5.85-6.65 9.98-8.34m-184.43 48.44c-2.21 6.26-3.16 12.88-5.29 19.16-3.88 13.71-12.2 25.52-17.16 38.79-6.88 16.95-8.03 36.26-2.61 53.77 2.67 8.64 7.28 16.92 14.38 22.67 11.02 9.04 27.12 11.2 40.18 5.55 9.24-3.74 16.42-11.46 20.6-20.39 5.87-13.01 7.67-27.72 5.7-41.81-1.86-13.26-7.38-25.64-13.42-37.47-7.36-12.69-10.96-27-14.27-41.15-1.95 0.04-3.92-0.08-5.85 0.24-7.36 1.23-14.84 0.34-22.26 0.64z"/>
</g>
<g fill="#f7e4d6">
<path d="m133.19 77.19c0.49-0.89 1.02-1.78 1.56-2.65 2.21 2.92 4.28 5.92 6.37 8.92-16.14 13.64-30.59 30.04-38.48 49.89-4.59-1.7-10.45-1.26-14.02-4.94 3.24-1.23 6.56-2.27 9.81-3.47-2.21-2.16-4.56-4.16-6.93-6.14 4.23-2.07 9.02-1.98 13.61-2.37-3.14-2.9-6.47-5.61-9.39-8.74 5.14-0.57 10.19 0.73 15.29 1.13-2.53-3.29-5.29-6.42-7.52-9.93 4.9-0.36 9.79 0.25 14.68 0.38-2.34-2.81-4.63-5.68-6.4-8.89 4.51 0.42 8.96 1.25 13.44 1.84-1.14-3.73-2.36-7.44-3.35-11.21 3.94 1.45 7.77 3.15 11.71 4.59-0.01-2.81-0.24-5.61-0.38-8.41z"/>
<path d="m294.38 84.63c2.16-3.16 4.26-6.44 7.2-8.96 0.08 0.84 0.24 2.53 0.31 3.37 0.01 2.72-0.14 5.42-0.2 8.14 3.98-1.63 7.93-3.38 12.09-4.51-1.22 3.73-2.59 7.4-3.88 11.11 4.48-0.56 8.93-1.34 13.44-1.6-1.74 3.21-4.07 6.03-6.45 8.77 4.94-0.23 9.89-0.78 14.82-0.2-2.33 3.25-4.89 6.31-7.24 9.54 4.92-0.24 9.81-1.01 14.74-0.99-2.64 3.39-6.11 5.97-9.34 8.76 4.55 0.61 9.27 0.73 13.51 2.69-2.45 1.94-4.9 3.89-7.12 6.09 3.23 1.6 7.51 1.66 9.86 4.68-4.69 1.48-9.49 2.56-14.26 3.73-7.25-20.12-21.77-36.56-37.48-50.62z"/>
<path d="m128.49 168.52c2.64-3.09 7.17-1.24 10.68-1.56-3.37 3.38-7.44 6.04-10.34 9.89-1.67 2.54-5.44 1.49-7.24 3.75-1.48 1.4-2.83 4.07-5.28 3.2-2.54-0.68-3.74-3.13-3.57-5.59 1.15-0.67 2.31-1.31 3.45-2 3.73-3.2 8.93-4.06 12.3-7.69z"/>
<path d="m291.07 167.35c2.53-0.45 5.16-0.85 7.72-0.4 2.14 1.57 3.76 3.9 6.35 4.81 4.26 1.67 7.81 4.64 11.63 7.09-0.61 2.61-2.56 5.47-5.6 4.99-2-0.77-2.97-3-4.67-4.24-2.36-0.85-5.28-0.98-6.71-3.37-2.25-3.36-5.97-5.31-8.64-8.12l-0.08-0.76z"/>
<path d="m189.04 189.12c2.25-4.57 5.78-8.28 9.68-11.48 0.25 2.03 0.47 4.07 0.72 6.11 3.2 1.29 7.16 1.52 9.39 4.46 1.52 1.89 3.46 3.58 4.36 5.88 0.41 3.56 0.43 7.21-0.07 10.76-2.54 10.08-11.1 16.93-15.02 26.34-3.32 7.54-4.63 16.73-0.57 24.25 3.68 6.96 11.87 10.35 19.47 10.15 5.9 0.18 12.23-1.9 15.79-6.84 4.56-6.27 6.64-14.62 4.67-22.2-1.71-7.78-7.24-13.88-12.2-19.82-2.89-3.58-6.48-7.06-7.33-11.77-0.36-3.56-0.42-7.2 0.12-10.75 1.65-2.34 3.8-4.29 5.68-6.44 2.06-2.55 5.68-2.34 8.43-3.69 1.1-1.9 0.85-4.26 1.22-6.36 3.16 2.84 6.28 5.82 8.39 9.56 4.4 7.62 9.34 15.13 16.06 20.92 2.47 1.95 5.53 4.17 8.86 3.37 3.71-1.22 6.73-3.83 10.02-5.84 6.74-4.49 14.61-6.92 22.52-8.37 13.41-2.49 27.05 1.21 39.15 6.91 4.39 7.32 5.86 16.3 9.17 24.24 2.59 6.83 8.87 11.33 11.86 17.92 0.68 2.49 0.93 5.85-1.47 7.53-7.03 5.91-15.49 9.7-23.62 13.83 0.15 0.81 0.45 2.41 0.6 3.21-4.9-16.06-11.64-31.77-21.57-45.39-2.72-3.78-5.61-7.93-10.09-9.73-5.19-1.49-11.45 0.15-14.76 4.54-2.47 3.8-2.85 8.98-0.56 12.96 2.4-0.02 4.84-0.53 7.23-0.12 2.16 0.76 4.25 1.68 6.4 2.47 2.2 10.7 3.19 21.62 4.3 32.48 0.38 5.21 0.93 10.48 0.2 15.69 0.19-1.87 0.21-3.76 0.25-5.63-1.4 0.68-2.77 1.4-4.11 2.17-0.03 2.17 0.05 4.34 0.15 6.51-2.1-1.52-4.17-3.07-6.34-4.47-15.53 3.9-30.94 8.97-47.04 9.84-2.2 0.08-4.44 0.1-6.51 0.92-4.19 1.5-8.72 0.78-13.05 1.45-11.93 1.74-24.12 0.73-35.87-1.78-2.79-0.68-5.68-0.69-8.53-1.02-19.88-0.69-38.55-8.32-56.98-15.09 0.19-13.79 2.2-27.49 4.44-41.07 3.19-0.94 6.18-3.09 9.65-2.53 1.64-0.12 3.85 0.61 4.73-1.26 1.63-3.45 0.93-7.74-0.84-11.01-4.24-6.3-14.71-7.79-19.91-1.84-9.84 10.93-16.58 24.27-22.03 37.83-1.66 3.98-2.93 8.1-4.04 12.27 0.18-0.89 0.54-2.66 0.72-3.55-6.73-1.11-12.29-5.18-18.18-8.3-3.32-1.83-6.57-3.97-9.02-6.91-2.04-2.4-0.76-5.77 0.82-8.05 4.16-6.12 9.36-11.64 12.2-18.58 2.96-7.86 6.34-15.61 8.55-23.73-0.02 0.71-0.06 2.12-0.08 2.83 7-4.01 11.28-11.14 17.5-16.1-1.29 2.9-2.55 5.83-3.74 8.78 5.63-1.38 11.37-2.8 17.22-2.37 10.37 0.69 20.54 4.6 28.67 11.11 3.47 2.51 6.58 5.71 10.65 7.26 3.6 0.97 6.95-1.45 9.54-3.67 5.82-5.33 10.35-11.92 14.15-18.79z"/>
<path d="m204.93 225.7c3.53-5.67 7.27-11.23 10.93-16.82 4.04 5.34 8.28 10.53 12.08 16.06-0.67 1-1.37 1.98-2.08 2.95-1.26-3.35-2.23-7.19-5.32-9.37-2.44-1.95-5.85-0.25-8.42-1.87-1.25 3.8-3.2 7.3-5.08 10.81-0.53-0.44-1.58-1.32-2.11-1.76z"/>
<path d="m395.29 213.41c8.42 0.84 14.73 7.23 20.66 12.64 9.84 10.65 15.86 24.42 18.81 38.51 0.8 3.83 1.7 7.69 1.6 11.63-2.2-2.57-4.6-4.95-7.05-7.27-2.39 3-4.83 5.96-7.41 8.8-2.05-3.53-3.89-7.18-5.86-10.76-3.12 2.3-6.15 4.7-9.21 7.08-1.64-4.14-2.74-8.47-4.03-12.72-3.47 1.92-6.6 4.37-9.81 6.69-0.27-3.99-0.48-7.99-0.86-11.98-1.63 0.62-3.26 1.25-4.84 1.97 4.56-9.96 12.42-19.43 11.2-31.03 0.1-4.82-3.83-8.73-3.2-13.56z"/>
<path d="m204.58 259.47c7.91 1.08 15.87 0.98 23.78-0.02-4.94 3.96-11.68 3.94-17.61 2.86-2.28-0.37-4.35-1.45-6.17-2.84z"/>
<path d="m202.86 306.44c7.42-0.3 14.9 0.59 22.26-0.64 1.93-0.32 3.9-0.2 5.85-0.24 3.31 14.15 6.91 28.46 14.27 41.15 6.04 11.83 11.56 24.21 13.42 37.47 1.97 14.09 0.17 28.8-5.7 41.81-4.18 8.93-11.36 16.65-20.6 20.39-13.06 5.65-29.16 3.49-40.18-5.55-7.1-5.75-11.71-14.03-14.38-22.67-5.42-17.51-4.27-36.82 2.61-53.77 4.96-13.27 13.28-25.08 17.16-38.79 2.13-6.28 3.08-12.9 5.29-19.16z"/>
</g>
</svg>
